<?xml version="1.0" encoding="utf-8"?>
<svg width="64" height="64" viewBox="0 0 64 64" xmlns="http://www.w3.org/2000/svg">
  <defs>
    <linearGradient id="bgGradient" x1="0%" y1="0%" x2="100%" y2="100%">
      <stop offset="0" style="stop-color:#4F46E5;stop-opacity:1"/>
      <stop offset="1" style="stop-color:#7C3AED;stop-opacity:1"/>
    </linearGradient>
    <linearGradient id="trayGradient" x1="0%" y1="0%" x2="0%" y2="100%">
      <stop offset="0" style="stop-color:#F3F4F6;stop-opacity:1"/>
      <stop offset="1" style="stop-color:#E5E7EB;stop-opacity:1"/>
    </linearGradient>
    <radialGradient id="statusGlow" cx="50%" cy="50%" r="50%">
      <stop offset="0" style="stop-color:#10B981;stop-opacity:0.8"/>
      <stop offset="1" style="stop-color:#10B981;stop-opacity:0"/>
    </radialGradient>
  </defs>
  <rect x="4" y="4" width="56" height="56" rx="12" ry="12" fill="url(#bgGradient)"/>
  <rect x="12" y="16" width="40" height="28" rx="3" ry="3" fill="url(#trayGradient)" opacity="0.95"/>
  <rect x="12" y="16" width="40" height="28" rx="3" ry="3" fill="none" stroke="#1F2937" stroke-width="1.5" opacity="0.3"/>
  <g opacity="0.4">
    <circle cx="20" cy="26" r="2" fill="#4F46E5"/>
    <circle cx="32" cy="24" r="2" fill="#4F46E5"/>
    <circle cx="44" cy="26" r="2" fill="#4F46E5"/>
    <circle cx="24" cy="34" r="2" fill="#4F46E5"/>
    <circle cx="40" cy="34" r="2" fill="#4F46E5"/>
    <line x1="20" y1="26" x2="32" y2="24" stroke="#4F46E5" stroke-width="1"/>
    <line x1="32" y1="24" x2="44" y2="26" stroke="#4F46E5" stroke-width="1"/>
    <line x1="20" y1="26" x2="24" y2="34" stroke="#4F46E5" stroke-width="1"/>
    <line x1="44" y1="26" x2="40" y2="34" stroke="#4F46E5" stroke-width="1"/>
    <line x1="24" y1="34" x2="40" y2="34" stroke="#4F46E5" stroke-width="1"/>
  </g>
  <rect x="12" y="48" width="40" height="6" rx="2" ry="2" fill="#1F2937" opacity="0.7"/>
  <g opacity="0.8" transform="matrix(1, 0, 0, 1, 4, 0)">
    <circle cx="19" cy="51" r="1.5" fill="#10B981"/>
    <circle cx="25" cy="51" r="1.5" fill="#3B82F6"/>
    <circle cx="31" cy="51" r="1.5" fill="#F59E0B"/>
    <circle cx="37" cy="51" r="1.5" fill="#EF4444"/>
  </g>
  <circle cx="52" cy="12" r="6" fill="url(#statusGlow)" opacity="0.5"/>
  <circle cx="52" cy="12" r="4" fill="#10B981"/>
  <circle cx="52" cy="12" r="2" fill="#34D399" opacity="0.8"/>
  <text x="32" y="40" font-family="Arial, sans-serif" font-size="8" font-weight="bold" fill="#6366F1" text-anchor="middle" opacity="0.6" style="white-space: pre;">LM</text>
  <rect x="4" y="4" width="56" height="56" rx="12" ry="12" fill="none" stroke="#FFFFFF" stroke-width="1" opacity="0.2"/>
</svg>